<?xml version="1.0" encoding="UTF-8"?>
<svg id="Calque_1" data-name="Calque 1" xmlns="http://www.w3.org/2000/svg" viewBox="0 0 308.79 74.14">
  <defs>
    <style>
      .cls-1 {
        fill: #16321c;
      }
    </style>
  </defs>
  <g>
    <path class="cls-1" d="M5.65,50.82h-2.16c-.6,0-1.06-.17-1.4-.51-.34-.34-.51-.81-.51-1.4V7.97c0-.51.16-.93.48-1.27.32-.34.73-.55,1.24-.64,2.46-.3,4.67-.45,6.62-.45,6.28,0,10.94,1.51,13.97,4.52,3.03,3.01,4.55,6.92,4.55,11.71,0,3.57-.83,6.67-2.48,9.33-1.65,2.65-4.18,4.57-7.58,5.76l9.61,10.95c.76.89,1.03,1.6.8,2.13-.23.53-.92.8-2.07.8h-3.06c-.64,0-1.12-.21-1.46-.64l-10.57-12.03c-.38.04-.98.06-1.78.06-.51,0-1.27-.04-2.29-.13v10.82c0,.59-.17,1.06-.51,1.4s-.81.51-1.4.51ZM10.37,11.41c-.51,0-1.44.06-2.8.19v20.69c1.87.09,2.97.13,3.31.13,3.99,0,6.9-.96,8.72-2.86,1.82-1.91,2.74-4.5,2.74-7.77,0-6.92-3.99-10.38-11.97-10.38Z"/>
    <path class="cls-1" d="M40.16,50.82c-.6,0-1.06-.17-1.4-.51-.34-.34-.51-.81-.51-1.4V8.17c0-.59.17-1.06.51-1.4s.81-.51,1.4-.51h23.49c.55,0,1.01.17,1.37.51.36.34.54.81.54,1.4v1.72c0,.55-.18,1.01-.54,1.37-.36.36-.82.54-1.37.54h-19.42v13.97h19.42c.55,0,1.01.17,1.37.51.36.34.54.81.54,1.4v1.72c0,.55-.18,1.01-.54,1.37-.36.36-.82.54-1.37.54h-19.42v13.97h19.42c.55,0,1.01.18,1.37.54.36.36.54.82.54,1.37v1.72c0,.59-.18,1.06-.54,1.4-.36.34-.82.51-1.37.51h-23.49Z"/>
  </g>
  <g>
    <path class="cls-1" d="M98,73.42c-.82-.14-1.49-.48-2.01-1.03-.51-.55-.77-1.24-.77-2.06V3.81c0-.82.26-1.51.77-2.06.51-.55,1.18-.89,2.01-1.03,5.15-.48,9.78-.72,13.9-.72,15.93,0,23.89,6.35,23.89,19.05,0,6.8-2.4,11.64-7.21,14.52,8.72,2.88,13.08,9.06,13.08,18.54,0,14.69-9.61,22.04-28.83,22.04-5.15,0-10.09-.24-14.83-.72ZM112.72,9.37c-1.1,0-3.71.17-7.83.52v19.87h7.11c5.08,0,8.67-.93,10.76-2.78,2.09-1.85,3.14-4.46,3.14-7.83,0-3.09-.94-5.49-2.83-7.21-1.89-1.71-5.34-2.57-10.35-2.57ZM112.52,39.13h-7.62v25.13c4.46.34,7.83.51,10.09.51,11.19,0,16.79-4.08,16.79-12.25,0-8.92-6.42-13.39-19.26-13.39Z"/>
    <path class="cls-1" d="M162.82,63.28c-7.24-7.24-10.86-15.98-10.86-26.21s3.62-18.96,10.86-26.21c7.24-7.24,16.01-10.86,26.31-10.86s19.07,3.62,26.31,10.86c7.24,7.24,10.86,15.98,10.86,26.21s-3.62,18.96-10.86,26.21c-7.24,7.24-16.01,10.86-26.31,10.86s-19.07-3.62-26.31-10.86ZM169.82,17.45c-5.32,5.39-7.98,11.93-7.98,19.62s2.66,14.23,7.98,19.62c5.32,5.39,11.76,8.08,19.31,8.08s13.99-2.69,19.31-8.08c5.32-5.39,7.98-11.93,7.98-19.62s-2.66-14.23-7.98-19.62c-5.32-5.39-11.76-8.08-19.31-8.08s-13.99,2.7-19.31,8.08Z"/>
    <path class="cls-1" d="M243.81,73.11c-.96,0-1.72-.27-2.27-.82-.55-.55-.82-1.3-.82-2.27V4.12c0-.96.27-1.72.82-2.26.55-.55,1.3-.82,2.27-.82h3.5c.96,0,1.72.27,2.27.82.55.55.82,1.3.82,2.26v65.9c0,.96-.28,1.72-.82,2.27-.55.55-1.3.82-2.27.82h-3.5Z"/>
    <path class="cls-1" d="M300.24,5.97c.48.62.72,1.27.72,1.96v5.05c0,2.13-.45,3.19-1.34,3.19-.76,0-1.65-.51-2.68-1.54-3.91-3.5-7.69-5.25-11.33-5.25-2.88,0-5.1.72-6.64,2.16-1.54,1.44-2.32,3.36-2.32,5.77,0,1.44.27,2.7.82,3.76.55,1.07,1.46,1.99,2.73,2.78,1.27.79,2.28,1.36,3.04,1.7.75.34,1.92.82,3.5,1.44,6.93,2.54,11.64,4.74,14.11,6.59,5.22,3.91,7.86,9.51,7.93,16.79,0,7.48-2.28,13.32-6.85,17.51-4.57,4.19-10.11,6.28-16.63,6.28-5.15,0-9.77-1.48-13.85-4.43-4.09-2.95-7.05-6.83-8.91-11.64-.55-1.58-.04-2.78,1.54-3.6l3.3-1.44c.55-.27,1.1-.41,1.65-.41,1.3,0,2.3.82,2.99,2.47,1.17,3.02,2.92,5.39,5.25,7.11,2.33,1.72,5.01,2.57,8.03,2.57,3.91,0,7.16-1.22,9.73-3.66,2.57-2.44,3.86-5.92,3.86-10.45,0-2.2-.31-4.07-.93-5.61-.62-1.54-1.67-2.85-3.14-3.91-1.48-1.06-2.83-1.87-4.07-2.42-1.24-.55-3.09-1.24-5.56-2.06-1.99-.69-3.49-1.22-4.48-1.6-1-.38-2.52-1.13-4.58-2.27-2.06-1.13-3.66-2.32-4.79-3.55-1.13-1.24-2.18-2.88-3.14-4.94-.96-2.06-1.44-4.32-1.44-6.8,0-5.22,1.75-9.44,5.25-12.67,3.5-3.23,7.79-4.84,12.87-4.84,3.09,0,6.02.55,8.81,1.65,2.78,1.1,4.96,2.54,6.54,4.32Z"/>
  </g>
  <path class="cls-1" d="M0,68.73c0-.98.28-1.76.84-2.32.56-.56,1.33-.84,2.32-.84l59.26.02c.98,0,1.76.28,2.32.84.56.56.84,1.33.84,2.32v.04c0,.98-.28,1.76-.84,2.32-.56.56-1.33.84-2.32.84l-59.26-.02c-.98,0-1.76-.28-2.32-.84-.56-.56-.84-1.33-.84-2.32v-.04Z"/>
</svg>